<svg xmlns="http://www.w3.org/2000/svg" viewBox="0 0 32 32">
  <circle cx="16" cy="16" r="14" fill="#21A082"/>
  <path d="M16 8c-2.5 0-4.5 1.5-5 4-.3 1.5.5 3 2 3.5.7.2 1.5.3 2.3.3.8 0 1.6-.1 2.3-.3 1.5-.5 2.3-2 2-3.5-.5-2.5-2.5-4-5-4zm-3 5c-.8 0-1.5.7-1.5 1.5s.7 1.5 1.5 1.5 1.5-.7 1.5-1.5-.7-1.5-1.5-1.5zm6 0c-.8 0-1.5.7-1.5 1.5s.7 1.5 1.5 1.5 1.5-.7 1.5-1.5-.7-1.5-1.5-1.5zm-3 6c-1.5 0-2.8.8-3.5 2-.3.5-.2 1.1.2 1.5.4.5 1 .7 1.6.7h2.6c.6 0 1.2-.2 1.6-.7.4-.4.5-1 .2-1.5-.7-1.2-2-2-3.5-2z" fill="white"/>
</svg>